<?xml version="1.0" encoding="UTF-8" standalone="no"?>
<!-- Created with Inkscape (http://www.inkscape.org/) -->

<svg
   width="110.27074mm"
   height="46.25758mm"
   viewBox="0 0 110.27074 46.25758"
   version="1.1"
   id="svg4816"
   inkscape:version="1.2.2 (b0a8486, 2022-12-01)"
   sodipodi:docname="ssh_keygen_drawing.svg"
   xmlns:inkscape="http://www.inkscape.org/namespaces/inkscape"
   xmlns:sodipodi="http://sodipodi.sourceforge.net/DTD/sodipodi-0.dtd"
   xmlns="http://www.w3.org/2000/svg"
   xmlns:svg="http://www.w3.org/2000/svg">
  <sodipodi:namedview
     id="namedview4818"
     pagecolor="#ffffff"
     bordercolor="#000000"
     borderopacity="0.25"
     inkscape:showpageshadow="2"
     inkscape:pageopacity="0.0"
     inkscape:pagecheckerboard="0"
     inkscape:deskcolor="#d1d1d1"
     inkscape:document-units="mm"
     showgrid="false"
     inkscape:zoom="0.72159091"
     inkscape:cx="237.66929"
     inkscape:cy="257.76378"
     inkscape:window-width="1390"
     inkscape:window-height="960"
     inkscape:window-x="252"
     inkscape:window-y="76"
     inkscape:window-maximized="0"
     inkscape:current-layer="layer1" />
  <defs
     id="defs4813" />
  <g
     inkscape:label="Layer 1"
     inkscape:groupmode="layer"
     id="layer1"
     transform="translate(-31.031296,-70.737878)">
    <g
       id="g4811"
       transform="matrix(0.35277777,0,0,0.35277777,27.322995,67.029577)">
      <path
         fill-rule="nonzero"
         fill="#232f3d"
         fill-opacity="1"
         d="m 200.04195,112.87852 c -1.04189,0 -1.88859,-0.84664 -1.88859,-1.88769 0,-1.04189 0.8467,-1.88848 1.88859,-1.88848 1.04193,0 1.88858,0.84659 1.88858,1.88848 0,1.04105 -0.84665,1.88769 -1.88858,1.88769 z m 0,-5.55118 c -2.01988,0 -3.66349,1.64361 -3.66349,3.66349 0,2.01909 1.64361,3.66271 3.66349,3.66271 2.01987,0 3.66348,-1.64362 3.66348,-3.66271 0,-2.01988 -1.64361,-3.66349 -3.66348,-3.66349 z m 28.14288,5.55118 h -16.68282 c -0.38615,0 -0.72868,0.25025 -0.84581,0.61951 -1.08533,3.42474 -4.23504,5.72503 -7.83825,5.72503 -4.53941,0 -8.23312,-3.69271 -8.23312,-8.23223 0,-4.53942 3.69371,-8.23302 8.23312,-8.23302 3.60321,0 6.75292,2.30024 7.83825,5.72503 0.11713,0.36926 0.45966,0.61951 0.84581,0.61951 h 2.81507 c 0.23603,0 0.46061,-0.0933 0.62745,-0.26013 l 1.75185,-1.7509 1.7519,1.7509 c 0.16674,0.16685 0.39226,0.26013 0.62735,0.26013 h 1.58604 c 0.23603,0 0.46149,-0.0933 0.62745,-0.26013 l 1.7518,-1.7509 1.75196,1.7509 c 0.16596,0.16685 0.39132,0.26013 0.62745,0.26013 h 2.04466 l 2.26134,1.97815 z m 3.37146,-2.55587 -3.17271,-2.77607 c -0.16152,-0.14113 -0.36925,-0.21924 -0.58484,-0.21924 h -2.01109 l -2.11927,-2.11928 c -0.34693,-0.34614 -0.90783,-0.34614 -1.25486,0 l -2.11932,2.11928 h -0.85109 l -2.11928,-2.11928 c -0.34698,-0.34614 -0.90876,-0.34614 -1.2549,0 l -2.11928,2.11928 h -1.82024 c -1.48921,-3.82145 -5.1518,-6.3446 -9.31146,-6.3446 -5.51923,0 -10.00803,4.48896 -10.00803,10.00809 0,5.51835 4.4888,10.0073 10.00803,10.0073 4.15966,0 7.82225,-2.5232 9.31146,-6.34459 h 16.46358 c 0.25913,0 0.505,-0.11363 0.67364,-0.31059 l 2.37839,-2.77518 c 0.31776,-0.3692 0.27781,-0.92482 -0.0887,-1.24512 z m 0,0"
         id="path460"
         style="stroke-width:0.0133856" />
      <g
         fill="#232f3d"
         fill-opacity="1"
         id="g468"
         transform="matrix(0.01338567,0,0,0.01338567,10.598446,10.598446)">
        <g
           id="use462"
           transform="translate(14411.646,9599.9521)">
          <path
             d="M 59.765625,0 V -644.23437 H 138.875 v 367.375 L 326.07812,-466.70312 H 428.46875 L 250.04687,-293.5625 446.48437,0 h -97.5625 l -154.25,-238.625 -55.79687,53.60938 V 0 Z m 0,0"
             id="path3386" />
        </g>
        <g
           id="use464"
           transform="translate(14861.644,9599.9521)">
          <path
             d="m 378.8125,-150.29687 81.73437,10.10937 c -12.88671,47.75 -36.76171,84.8125 -71.625,111.1875 -34.86718,26.367187 -79.39843,39.546875 -133.59375,39.546875 -68.26171,0 -122.39062,-21.019531 -162.39062,-63.0625 C 52.945313,-94.554688 32.953125,-153.51562 32.953125,-229.39062 c 0,-78.51954 20.210938,-139.45704 60.640625,-182.8125 40.4375,-43.36329 92.87891,-65.04688 157.32812,-65.04688 62.40625,0 113.38282,21.24219 152.9375,63.71875 39.55079,42.48047 59.32813,102.24609 59.32813,179.29688 0,4.6875 -0.14844,11.71875 -0.4375,21.09375 H 114.70313 c 2.92578,51.27343 17.42578,90.53124 43.49999,117.781245 26.07032,27.242187 58.59375,40.859375 97.5625,40.859375 29,0 53.75391,-7.613281 74.26563,-22.84375 20.50781,-15.238281 36.76953,-39.55469 48.78125,-72.95312 z m -259.71875,-127.875 H 379.6875 c -3.51172,-39.25782 -13.46875,-68.70313 -29.875,-88.32813 -25.19922,-30.46875 -57.86719,-45.70312 -98,-45.70312 -36.33594,0 -66.88281,12.15625 -91.64063,36.46875 -24.75,24.3125 -38.44531,56.83593 -41.07812,97.5625 z m 0,0"
             id="path3390" />
        </g>
        <g
           id="use466"
           transform="translate(15362.179,9599.9521)">
          <path
             d="m 55.8125,179.73437 -8.796875,-74.26562 c 17.289063,4.6875 32.378906,7.03125 45.265625,7.03125 17.58203,0 31.64453,-2.93359 42.1875,-8.79687 10.55078,-5.855474 19.19531,-14.054692 25.9375,-24.593755 C 165.38281,71.191406 173.44141,51.5625 184.57812,20.21875 186.03516,15.820313 188.37891,9.375 191.60937,0.875 L 14.5,-466.70312 h 85.25 l 97.125,270.26562 c 12.59375,34.28125 23.875,70.32031 33.84375,108.109375 9.08203,-36.332035 19.92187,-71.781245 32.51562,-106.343745 l 99.75,-272.03125 h 79.10938 L 264.54687,7.90625 c -19.04296,51.269531 -33.83593,86.570313 -44.375,105.90625 -14.0625,26.08203 -30.17968,45.20312 -48.34375,57.35937 -18.16796,12.15625 -39.85156,18.23438 -65.04687,18.23438 -15.230469,0 -32.21875,-3.22656 -50.96875,-9.67188 z m 0,0"
             id="path3394" />
        </g>
      </g>
      <path
         style="color:#000000;fill:#000000;stroke-width:0.027592;stroke-miterlimit:10;-inkscape-stroke:none"
         d="m 151.06047,29.585256 v 35.138159 h -18.9878 v 2.181266 h 21.16901 V 31.768355 l 33.17423,0.02835 0.002,-2.181267 z"
         id="path470" />
      <g
         id="path472"
         transform="matrix(0.02759188,0,0,0.02759188,10.221681,10.221681)">
        <path
           style="color:#000000;fill:#000000;stroke-width:79.0542;stroke-miterlimit:10;-inkscape-stroke:none"
           d="M 6576.7806,742.56517 6321.9792,869.69773 6385.7605,742.406 6322.1971,615.00432 Z m 0,0"
           id="path4078" />
        <path
           style="color:#000000;fill:#000000;stroke-miterlimit:10;-inkscape-stroke:none"
           d="m 6233.8906,526.54687 107.6778,215.82032 -108.0508,215.64258 431.6484,-215.36915 -70.6777,-35.41406 z m 176.6133,176.91602 77.8906,39.02734 -77.9531,38.89454 19.5117,-38.94141 z"
           id="path4080" />
      </g>
      <path
         style="color:#000000;fill:#000000;stroke-width:0.027592;stroke-miterlimit:10;-inkscape-stroke:none"
         d="m 132.07267,64.723415 v 2.181266 h 18.9878 v 45.176329 h 35.35636 v -2.18127 H 153.24168 V 64.723415 Z"
         id="path474" />
      <g
         id="path476"
         transform="matrix(0.02759188,0,0,0.02759188,10.221681,10.221681)">
        <path
           style="color:#000000;fill:#000000;stroke-width:79.0542;stroke-miterlimit:10;-inkscape-stroke:none"
           d="m 6576.7806,3652.1136 -254.6915,127.3467 63.6714,-127.3467 -63.6714,-127.3448 z m 0,0"
           id="path4088" />
        <path
           style="color:#000000;fill:#000000;stroke-miterlimit:10;-inkscape-stroke:none"
           d="m 6233.7051,3436.3848 107.8633,215.7285 -107.8633,215.7324 431.4609,-215.7324 -70.709,-35.3535 z m 176.7676,176.7675 77.9238,38.961 -77.9238,38.9609 19.4804,-38.9609 z"
           id="path4090" />
      </g>
      <path
         style="color:#000000;fill:#000000;stroke-width:0.027592;-inkscape-stroke:none"
         d="m 10.511719,49.664603 v 1.090634 31.208202 H 133.16331 V 49.664603 Z m 2.181268,2.181269 H 130.98204 V 79.78217 H 12.692987 Z"
         id="path478" />
      <g
         fill="#232f3d"
         fill-opacity="1"
         id="g500"
         transform="matrix(0.01338567,0,0,0.01338567,10.598446,10.598446)">
        <g
           id="use480"
           transform="translate(786.32416,4499.9775)">
          <path
             d="m 520.45312,-415.875 c -20.75,-12.86328 -42.54296,-22.50781 -65.375,-28.9375 -22.82421,-6.4375 -46.68359,-9.65625 -71.57812,-9.65625 -49.39844,0 -88.62109,8.09375 -117.67188,24.28125 -12.86718,7.05469 -19.29687,14.73047 -19.29687,23.03125 0,9.55469 8.71875,18.89063 26.15625,28.01563 13.28125,6.64843 42.95312,13.07812 89.01562,19.29687 84.66407,11.625 143.60157,23.25 176.8125,34.875 43.57032,15.35547 77.1875,38.18359 100.84375,68.48438 23.66407,30.29296 35.5,62.24609 35.5,95.85937 0,45.65625 -20.13281,83.84375 -60.39062,114.5625 -57.6875,44.40625 -132.60547,66.609375 -224.75,66.609375 -36.9375,0 -71.07422,-3.21875 -102.40625,-9.65625 -31.33594,-6.429687 -60.07422,-15.867188 -86.21875,-28.328125 -6.23047,5.398437 -12.875,9.546875 -19.9375,12.453125 -7.05469,2.90625 -14.3125,4.359375 -21.78125,4.359375 -19.91797,0 -35.79297,-6.535156 -47.625,-19.609375 C 99.914063,-33.304688 94,-55.195313 94,-85.90625 V -128.875 c 0,-30.70703 5.914063,-52.59766 17.75,-65.67187 11.83203,-13.07032 27.28906,-19.60938 46.375,-19.60938 15.36328,0 28.23437,4.25781 38.60937,12.76563 10.375,8.5 18.46875,23.13281 24.28125,43.89062 19.5,16.59375 42.94532,29.14844 70.34375,37.65625 27.39454,8.51172 58.9375,12.76562 94.625,12.76562 58.51954,0 103.96875,-9.1289 136.34375,-27.39062 15.35157,-9.13281 23.03125,-18.67969 23.03125,-28.64062 0,-16.60157 -11,-30.30079 -33,-41.09375 -21.99218,-10.78907 -67.43359,-19.92188 -136.32812,-27.39063 -102.52344,-10.78906 -171.00781,-31.53906 -205.45313,-62.25 -34.44921,-30.30078 -51.67187,-67.65625 -51.67187,-112.0625 0,-45.65625 19.30078,-83.63281 57.90625,-113.9375 52.28906,-41.5 120.76953,-62.25 205.4375,-62.25 29.46875,0 57.79687,2.80469 84.98437,8.40625 27.1875,5.60547 53.22657,14.21484 78.125,25.82813 7.88282,-5.80079 15.25,-10.15625 22.09375,-13.0625 6.85157,-2.90625 13.1875,-4.35938 19,-4.35938 17.42579,0 31.95313,6.53906 43.57813,19.60938 11.625,13.07421 17.4375,34.96484 17.4375,65.67187 v 31.14063 c 0,27.80468 -3.32422,46.68359 -9.96875,56.64062 -13.28125,19.09375 -31.33594,28.64063 -54.15625,28.64063 -15.36719,0 -28.85938,-4.76954 -40.48438,-14.3125 -11.61718,-9.55079 -19.08593,-22.21094 -22.40625,-37.98438 z m 0,0"
             id="path3398" />
        </g>
        <g
           id="use482"
           transform="translate(1551.4448,4499.9775)">
          <path
             d="m 520.45312,-415.875 c -20.75,-12.86328 -42.54296,-22.50781 -65.375,-28.9375 -22.82421,-6.4375 -46.68359,-9.65625 -71.57812,-9.65625 -49.39844,0 -88.62109,8.09375 -117.67188,24.28125 -12.86718,7.05469 -19.29687,14.73047 -19.29687,23.03125 0,9.55469 8.71875,18.89063 26.15625,28.01563 13.28125,6.64843 42.95312,13.07812 89.01562,19.29687 84.66407,11.625 143.60157,23.25 176.8125,34.875 43.57032,15.35547 77.1875,38.18359 100.84375,68.48438 23.66407,30.29296 35.5,62.24609 35.5,95.85937 0,45.65625 -20.13281,83.84375 -60.39062,114.5625 -57.6875,44.40625 -132.60547,66.609375 -224.75,66.609375 -36.9375,0 -71.07422,-3.21875 -102.40625,-9.65625 -31.33594,-6.429687 -60.07422,-15.867188 -86.21875,-28.328125 -6.23047,5.398437 -12.875,9.546875 -19.9375,12.453125 -7.05469,2.90625 -14.3125,4.359375 -21.78125,4.359375 -19.91797,0 -35.79297,-6.535156 -47.625,-19.609375 C 99.914063,-33.304688 94,-55.195313 94,-85.90625 V -128.875 c 0,-30.70703 5.914063,-52.59766 17.75,-65.67187 11.83203,-13.07032 27.28906,-19.60938 46.375,-19.60938 15.36328,0 28.23437,4.25781 38.60937,12.76563 10.375,8.5 18.46875,23.13281 24.28125,43.89062 19.5,16.59375 42.94532,29.14844 70.34375,37.65625 27.39454,8.51172 58.9375,12.76562 94.625,12.76562 58.51954,0 103.96875,-9.1289 136.34375,-27.39062 15.35157,-9.13281 23.03125,-18.67969 23.03125,-28.64062 0,-16.60157 -11,-30.30079 -33,-41.09375 -21.99218,-10.78907 -67.43359,-19.92188 -136.32812,-27.39063 -102.52344,-10.78906 -171.00781,-31.53906 -205.45313,-62.25 -34.44921,-30.30078 -51.67187,-67.65625 -51.67187,-112.0625 0,-45.65625 19.30078,-83.63281 57.90625,-113.9375 52.28906,-41.5 120.76953,-62.25 205.4375,-62.25 29.46875,0 57.79687,2.80469 84.98437,8.40625 27.1875,5.60547 53.22657,14.21484 78.125,25.82813 7.88282,-5.80079 15.25,-10.15625 22.09375,-13.0625 6.85157,-2.90625 13.1875,-4.35938 19,-4.35938 17.42579,0 31.95313,6.53906 43.57813,19.60938 11.625,13.07421 17.4375,34.96484 17.4375,65.67187 v 31.14063 c 0,27.80468 -3.32422,46.68359 -9.96875,56.64062 -13.28125,19.09375 -31.33594,28.64063 -54.15625,28.64063 -15.36719,0 -28.85938,-4.76954 -40.48438,-14.3125 -11.61718,-9.55079 -19.08593,-22.21094 -22.40625,-37.98438 z m 0,0"
             id="path3402" />
        </g>
        <g
           id="use484"
           transform="translate(2316.5654,4499.9775)">
          <path
             d="m 250.89062,-807.45312 v 272.04687 c 26.5625,-15.76953 53.4375,-27.49219 80.625,-35.17187 27.1875,-7.67579 54.67969,-11.51563 82.48438,-11.51563 44,0 83.22266,7.47656 117.67187,22.42188 34.44532,14.9375 62.97657,38.49218 85.59375,70.65625 22.625,32.16796 33.9375,72.73437 33.9375,121.70312 v 239.6875 c 32.36329,0 53.53125,3.11719 63.5,9.34375 19.91407,12.86719 29.875,31.125 29.875,54.78125 0,18.679687 -6.43359,33.933594 -19.29687,45.765625 C 712.41406,-5.910156 690.625,0 659.90625,0 H 514.23437 C 483.92969,0 462.24219,-5.910156 449.17187,-17.734375 436.09766,-29.566406 429.5625,-45.03125 429.5625,-64.125 c 0,-23.238281 9.96094,-41.28906 29.89062,-54.15625 10.375,-6.64453 31.53907,-9.75781 63.5,-9.34375 v -230.96875 c 0,-32.78906 -7.47656,-55.82812 -22.42187,-69.10937 -19.5,-17.84375 -48.34375,-26.76563 -86.53125,-26.76563 -28.21875,0 -53.22656,5.5 -75.01563,16.5 -21.79296,11 -51.15625,34.76172 -88.09375,71.28125 v 239.0625 c 32.78907,0 53.95704,3.11719 63.5,9.34375 20.33204,12.86719 30.5,31.125 30.5,54.78125 0,18.679687 -6.53906,33.933594 -19.60937,45.765625 C 312.20703,-5.910156 290.31641,0 259.60937,0 H 114.54688 C 83.835938,0 61.945313,-5.910156 48.875,-17.734375 35.800781,-29.566406 29.265625,-45.03125 29.265625,-64.125 c 0,-23.238281 10.164063,-41.28906 30.5,-54.15625 9.957031,-6.64453 31.125,-9.75781 63.500005,-9.34375 v -552.20312 h -21.78125 c -30.718755,0 -52.617192,-5.91016 -65.687505,-17.73438 -13.074219,-11.83203 -19.609375,-27.29687 -19.609375,-46.39062 0,-18.67579 6.535156,-33.92579 19.609375,-45.75 13.070313,-11.83204 34.96875,-17.75 65.687505,-17.75 z m 0,0"
             id="path3406" />
        </g>
        <g
           id="use486"
           transform="translate(3081.6863,4499.9775)">
          <path
             d="M 649.95312,-303.8125 H 117.04688 v -116.42187 h 532.90624 z m 0,0"
             id="path3410" />
        </g>
        <g
           id="use488"
           transform="translate(3846.8069,4499.9775)">
          <path
             d="M 277.65625,-212.29687 V 0 H 128.25 C 97.53125,0 75.632813,-5.910156 62.5625,-17.734375 49.488281,-29.566406 42.953125,-45.03125 42.953125,-64.125 c 0,-18.675781 6.640625,-33.925781 19.921875,-45.75 13.28125,-11.83203 35.070313,-17.75 65.375,-17.75 h 21.78125 V -679.82812 H 128.25 c -30.71875,0 -52.617187,-5.91016 -65.6875,-17.73438 -13.074219,-11.83203 -19.609375,-27.29687 -19.609375,-46.39062 0,-18.67579 6.535156,-33.92579 19.609375,-45.75 13.070313,-11.83204 34.96875,-17.75 65.6875,-17.75 h 149.40625 v 430.1875 l 99.60937,-80.3125 c -10.375,-17.84375 -15.5625,-32.36719 -15.5625,-43.57813 0,-19.09375 6.42969,-34.55078 19.29688,-46.375 12.875,-11.83203 34.66406,-17.75 65.375,-17.75 h 145.67187 c 30.71875,0 52.61329,5.91797 65.6875,17.75 13.07032,11.82422 19.60938,27.28125 19.60938,46.375 0,18.67969 -6.53906,33.93359 -19.60938,45.76563 -13.07421,11.82421 -34.96875,17.73437 -65.6875,17.73437 H 556.5625 l -155.01563,125.75 208.5625,184.28125 h 37.35938 c 30.70703,0 52.59766,5.91797 65.67187,17.75 13.07032,11.824219 19.60938,27.28125 19.60938,46.375 0,18.679687 -6.53906,33.933594 -19.60938,45.765625 C 700.06641,-5.910156 678.17578,0 647.46875,0 H 500.53125 C 469.82031,0 447.92969,-5.910156 434.85937,-17.734375 421.78516,-29.566406 415.25,-45.03125 415.25,-64.125 c 0,-16.1875 7.05078,-32.164063 21.15625,-47.9375 L 301.3125,-231.59375 Z m 0,0"
             id="path3414" />
        </g>
        <g
           id="use490"
           transform="translate(4611.9277,4499.9775)">
          <path
             d="M 702.875,-217.89062 H 179.29687 c 13.28125,33.19921 36.83204,59.96875 70.65625,80.3125 33.83204,20.33593 79.59375,30.49999 137.28125,30.49999 47.3125,0 110.1875,-10.16406 188.625,-30.49999 32.375,-8.30079 54.78907,-12.45313 67.25,-12.45313 17.00782,0 31.32032,6.02344 42.9375,18.0625 11.625,12.03125 17.4375,27.17969 17.4375,45.4375 0,16.59375 -6.22656,30.703125 -18.67187,42.328125 -16.60547,15.355469 -57.07422,29.984375 -121.40625,43.890625 -64.32422,13.90625 -126.16406,20.859375 -185.51563,20.859375 -102.09375,0 -183.75,-28.84375 -244.96875,-86.53125 C 71.703125,-123.67969 41.09375,-194.65625 41.09375,-278.90625 c 0,-89.64453 33.097656,-162.58594 99.29687,-218.82812 66.19532,-56.23829 142.45704,-84.35938 228.78125,-84.35938 51.88282,0 99.50782,9.13281 142.875,27.39063 43.375,18.26171 75.64454,37.97656 96.8125,59.14062 29.88282,30.71875 54.58204,68.69922 74.09375,113.9375 13.28125,31.54297 19.92188,68.0625 19.92188,109.5625 z m -141.32813,-127.625 c -19.51171,-36.53125 -45.03906,-63.82032 -76.57812,-81.875 -31.54297,-18.05079 -69.10156,-27.07813 -112.67188,-27.07813 -43.16796,0 -80.52343,9.02734 -112.0625,27.07813 -31.54296,18.05468 -57.27734,45.34375 -77.20312,81.875 z m 0,0"
             id="path3418" />
        </g>
        <g
           id="use492"
           transform="translate(5377.0483,4499.9775)">
          <path
             d="M 311.28125,-4.359375 90.265625,-437.65625 c -20.75,-2.48828 -36.523437,-9.53906 -47.3125,-21.15625 -10.792969,-11.625 -16.1875,-25.73828 -16.1875,-42.34375 0,-19.09375 6.535156,-34.55078 19.609375,-46.375 13.070313,-11.83203 34.96875,-17.75 65.6875,-17.75 h 116.42187 c 30.70704,0 52.59766,5.91797 65.67188,17.75 13.07031,11.82422 19.60937,27.28125 19.60937,46.375 0,18.67969 -6.53906,33.93359 -19.60937,45.76563 -13.07422,11.82421 -33.71875,17.73437 -61.9375,17.73437 L 382.875,-144.4375 532.28125,-437.65625 c -27.38672,0 -47.61719,-5.91016 -60.6875,-17.73437 -13.07422,-11.83204 -19.60938,-27.29688 -19.60938,-46.39063 0,-18.67578 6.53516,-33.92578 19.60938,-45.75 13.07031,-11.83203 34.96094,-17.75 65.67187,-17.75 h 120.15625 c 30.30079,0 51.98829,5.91797 65.0625,17.75 13.07032,11.82422 19.60938,27.28125 19.60938,46.375 0,17.01172 -5.60547,31.43359 -16.8125,43.26563 -11.21094,11.82421 -27.8125,18.57031 -49.8125,20.23437 L 382.875,138.82812 c 31.95703,0 52.91406,3.11329 62.875,9.34375 19.92578,12.86329 29.89062,31.125 29.89062,54.78125 0,18.67579 -6.54296,33.92579 -19.625,45.75 -13.07421,11.83204 -34.96484,17.75 -65.67187,17.75 H 112.0625 c -30.71875,0 -52.617187,-5.91796 -65.6875,-17.75 -13.074219,-11.82421 -19.609375,-27.07421 -19.609375,-45.75 0,-19.09375 6.535156,-34.55859 19.609375,-46.39062 13.070313,-11.82422 34.96875,-17.73438 65.6875,-17.73438 h 127 z m 0,0"
             id="path3422" />
        </g>
        <g
           id="use494"
           transform="translate(6142.1689,4499.9775)">
          <path
             d="m 522.95312,-527.3125 v -37.96875 h 149.40625 c 30.71875,0 52.61329,5.91797 65.6875,17.75 13.07032,11.82422 19.60938,27.28125 19.60938,46.375 0,18.67969 -6.53906,33.93359 -19.60938,45.76563 -13.07421,11.82421 -34.96875,17.73437 -65.6875,17.73437 H 650.57812 V 26.765625 c 0,44.820313 -9.44531,83.937505 -28.32812,117.343745 -18.88672,33.41407 -47.83984,62.16016 -86.85938,86.23438 -39.01171,24.07031 -83,36.10937 -131.96875,36.10937 h -144.4375 c -30.71093,0 -52.60546,-5.91796 -65.6875,-17.75 -13.07421,-11.82421 -19.60937,-27.07421 -19.60937,-45.75 0,-19.09375 6.53516,-34.55859 19.60937,-46.39062 13.08204,-11.82422 34.97657,-17.73438 65.6875,-17.73438 H 399.6875 c 39.00781,0 69.30469,-10.58593 90.89062,-31.74999 21.58204,-21.167974 32.375,-47.937505 32.375,-80.312505 v -62.25 c -28.23046,18.261719 -56.97656,31.953125 -86.23437,41.078125 -29.26172,9.132813 -59.24609,13.703125 -89.95313,13.703125 -86.74218,0 -159.37109,-28.945313 -217.89062,-86.84375 C 70.351563,-125.44141 41.09375,-196.92969 41.09375,-282.01562 c 0,-85.5 29.257813,-157.19532 87.78125,-215.09375 58.51953,-57.89454 131.14844,-86.84375 217.89062,-86.84375 32.375,0 63.19141,4.67187 92.45313,14.01562 29.25781,9.33594 57.17187,23.54297 83.73437,42.625 z m -0.625,244.67188 c 0,-46.89454 -17.32812,-87.56641 -51.98437,-122.01563 -34.65625,-34.44531 -76.26563,-51.67187 -124.82813,-51.67187 -48.55468,0 -90.15625,17.22656 -124.8125,51.67187 -34.65625,34.44922 -51.98437,75.12109 -51.98437,122.01563 0,47.3125 17.32812,88.08984 51.98437,122.32812 34.65625,34.24219 76.25782,51.35937 124.8125,51.35937 48.5625,0 90.17188,-17.11718 124.82813,-51.35937 34.65625,-34.23828 51.98437,-75.01562 51.98437,-122.32812 z m 0,0"
             id="path3426" />
        </g>
        <g
           id="use496"
           transform="translate(6907.2896,4499.9775)">
          <path
             d="M 702.875,-217.89062 H 179.29687 c 13.28125,33.19921 36.83204,59.96875 70.65625,80.3125 33.83204,20.33593 79.59375,30.49999 137.28125,30.49999 47.3125,0 110.1875,-10.16406 188.625,-30.49999 32.375,-8.30079 54.78907,-12.45313 67.25,-12.45313 17.00782,0 31.32032,6.02344 42.9375,18.0625 11.625,12.03125 17.4375,27.17969 17.4375,45.4375 0,16.59375 -6.22656,30.703125 -18.67187,42.328125 -16.60547,15.355469 -57.07422,29.984375 -121.40625,43.890625 -64.32422,13.90625 -126.16406,20.859375 -185.51563,20.859375 -102.09375,0 -183.75,-28.84375 -244.96875,-86.53125 C 71.703125,-123.67969 41.09375,-194.65625 41.09375,-278.90625 c 0,-89.64453 33.097656,-162.58594 99.29687,-218.82812 66.19532,-56.23829 142.45704,-84.35938 228.78125,-84.35938 51.88282,0 99.50782,9.13281 142.875,27.39063 43.375,18.26171 75.64454,37.97656 96.8125,59.14062 29.88282,30.71875 54.58204,68.69922 74.09375,113.9375 13.28125,31.54297 19.92188,68.0625 19.92188,109.5625 z m -141.32813,-127.625 c -19.51171,-36.53125 -45.03906,-63.82032 -76.57812,-81.875 -31.54297,-18.05079 -69.10156,-27.07813 -112.67188,-27.07813 -43.16796,0 -80.52343,9.02734 -112.0625,27.07813 -31.54296,18.05468 -57.27734,45.34375 -77.20312,81.875 z m 0,0"
             id="path3430" />
        </g>
        <g
           id="use498"
           transform="translate(7672.4102,4499.9775)">
          <path
             d="m 253.375,-565.28125 v 42.95313 c 23.25,-19.91407 48.87891,-34.85157 76.89062,-44.8125 28.01954,-9.96875 58.42188,-14.95313 91.20313,-14.95313 75.53906,0 135.30469,23.44922 179.29687,70.34375 34.86329,37.35547 52.29688,86.33594 52.29688,146.9375 v 237.1875 c 26.97656,0 46.89844,5.91797 59.76562,17.75 12.86329,11.824219 19.29688,27.28125 19.29688,46.375 0,18.679687 -6.53906,33.933594 -19.60938,45.765625 C 699.44141,-5.910156 677.55078,0 646.84375,0 H 531.67187 C 500.95312,0 479.05469,-5.910156 465.98437,-17.734375 452.91016,-29.566406 446.375,-45.03125 446.375,-64.125 c 0,-18.675781 6.42969,-33.925781 19.29687,-45.75 12.86329,-11.83203 32.78516,-17.75 59.76563,-17.75 v -240.9375 c 0,-27.80078 -7.46875,-48.13281 -22.40625,-61 -19.51172,-16.60156 -48.77344,-24.90625 -87.78125,-24.90625 -29.46875,0 -55.30859,5.71094 -77.51563,17.125 -22.19921,11.40625 -50.32031,35.58594 -84.35937,72.53125 v 237.1875 c 32.78906,0 53.95703,3.11719 63.5,9.34375 20.34375,12.44922 30.51562,30.710937 30.51562,54.78125 0,18.679687 -6.53906,33.933594 -19.60937,45.765625 C 314.70703,-5.910156 292.8125,0 262.09375,0 H 117.04688 C 86.328125,0 64.429688,-5.910156 51.359375,-17.734375 38.285156,-29.566406 31.75,-45.03125 31.75,-64.125 c 0,-23.238281 9.960938,-41.28906 29.890625,-54.15625 9.957031,-6.22656 31.328125,-9.34375 64.109375,-9.34375 v -310.03125 c -26.96875,0 -46.890625,-6.01562 -59.765625,-18.04687 -12.867187,-12.03907 -19.296875,-27.39844 -19.296875,-46.07813 0,-18.67578 6.535156,-33.92578 19.609375,-45.75 13.070313,-11.83203 34.968755,-17.75 65.687495,-17.75 z m 0,0"
             id="path3434" />
        </g>
      </g>
      <g
         fill="#232f3d"
         fill-opacity="1"
         id="g522"
         transform="matrix(0.01338567,0,0,0.01338567,10.598446,10.598446)">
        <g
           id="use502"
           transform="translate(17994.051,1649.9917)">
          <path
             d="m 69.4375,0 v -644.23437 h 243.01562 c 42.76954,0 75.4375,2.04687 98,6.14062 31.63282,5.28125 58.14454,15.32031 79.53125,30.10938 21.39454,14.79296 38.60938,35.52343 51.64063,62.1875 13.03906,26.65625 19.5625,55.95312 19.5625,87.89062 0,54.78125 -17.43359,101.14063 -52.29688,139.07813 -34.86718,37.9375 -97.85546,56.90625 -188.96875,56.90625 H 154.6875 V 0 Z m 85.25,-337.9375 h 166.54687 c 55.08204,0 94.19532,-10.25391 117.34375,-30.76562 23.14454,-20.50782 34.71875,-49.36719 34.71875,-86.57813 0,-26.94531 -6.8125,-50.01562 -20.4375,-69.20312 -13.625,-19.1875 -31.57031,-31.85938 -53.82812,-38.01563 -14.36719,-3.8125 -40.88281,-5.71875 -79.54688,-5.71875 H 154.6875 Z m 0,0"
             id="path3438" />
        </g>
        <g
           id="use504"
           transform="translate(18594.34,1649.9917)">
          <path
             d="m 365.1875,0 v -68.5625 c -36.33594,52.742187 -85.69922,79.109375 -148.09375,79.109375 -27.54297,0 -53.25,-5.273437 -77.125,-15.8125 -23.875,-10.550781 -41.601562,-23.8125 -53.171875,-39.78125 C 75.222656,-61.015625 67.09375,-80.570313 62.40625,-103.71875 59.175781,-119.23828 57.5625,-143.84766 57.5625,-177.54687 v -289.15625 h 79.10937 v 258.84375 c 0,41.30468 1.60938,69.13671 4.82813,83.49999 4.97656,20.79297 15.52344,37.125005 31.64062,49.000005 16.11329,11.867187 36.03516,17.796875 59.76563,17.796875 23.72656,0 45.99219,-6.078125 66.79687,-18.234375 20.80079,-12.164063 35.52344,-28.722655 44.17188,-49.671875 8.64453,-20.94531 12.96875,-51.34375 12.96875,-91.1875 V -466.70312 H 435.9375 V 0 Z m 0,0"
             id="path3442" />
        </g>
        <g
           id="use506"
           transform="translate(19094.875,1649.9917)">
          <path
             d="M 132.28125,0 H 58.890625 v -644.23437 h 79.093745 v 229.82812 C 171.39062,-456.30078 214.01953,-477.25 265.875,-477.25 c 28.70703,0 55.87891,5.78906 81.51562,17.35938 25.63282,11.57421 46.72657,27.83593 63.28125,48.78125 16.55079,20.94921 29.51563,46.21875 38.89063,75.8125 9.375,29.58593 14.0625,61.22656 14.0625,94.92187 0,79.98047 -19.77734,141.796875 -59.32813,185.453125 -39.55468,43.648437 -87.01171,65.46875 -142.375,65.46875 -55.08593,0 -98.29687,-23 -129.64062,-69 z m -0.89063,-236.85937 c 0,55.94921 7.61719,96.375 22.85938,121.28124 24.90625,40.718755 58.59766,61.07813 101.07812,61.07813 34.5625,0 64.44141,-15.007813 89.64063,-45.03125 25.19531,-30.03125 37.79687,-74.78516 37.79687,-134.26562 0,-60.9375 -12.08984,-105.90625 -36.26562,-134.90625 -24.16797,-29 -53.38672,-43.5 -87.65625,-43.5 -34.57422,0 -64.46094,15.01562 -89.65625,45.04687 -25.19922,30.02344 -37.79688,73.45313 -37.79688,130.29688 z m 0,0"
             id="path3446" />
        </g>
        <g
           id="use508"
           transform="translate(19595.41,1649.9917)">
          <path
             d="m 57.5625,0 v -644.23437 h 79.10937 V 0 Z m 0,0"
             id="path3450" />
        </g>
        <g
           id="use510"
           transform="translate(19795.359,1649.9917)">
          <path
             d="m 59.765625,-553.26562 v -90.96875 H 138.875 v 90.96875 z M 59.765625,0 V -466.70312 H 138.875 V 0 Z m 0,0"
             id="path3454" />
        </g>
        <g
           id="use512"
           transform="translate(19995.311,1649.9917)">
          <path
             d="m 363.875,-170.95312 77.78125,10.10937 c -8.5,53.61719 -30.25781,95.585937 -65.26563,125.90625 -35.01171,30.324219 -78.00781,45.484375 -128.98437,45.484375 -63.86719,0 -115.21094,-20.875 -154.03125,-62.625 -38.8125,-41.75 -58.21875,-101.585935 -58.21875,-179.515625 0,-50.38281 8.347656,-94.47266 25.046875,-132.26562 16.695313,-37.80079 42.109375,-66.14844 76.234375,-85.04688 34.13281,-18.89453 71.27344,-28.34375 111.42187,-28.34375 50.67579,0 92.12891,12.82031 124.35938,38.45313 32.22656,25.63671 52.88281,62.03906 61.96875,109.20312 l -76.90625,11.875 c -7.32422,-31.35156 -20.28906,-54.9375 -38.89063,-70.75 -18.60546,-15.82031 -41.09375,-23.73437 -67.46875,-23.73437 -39.84375,0 -72.21875,14.28125 -97.125,42.84375 -24.89843,28.5625 -37.34374,73.75 -37.34374,135.5625 0,62.69921 12.00781,108.25781 36.03124,136.67187 24.03125,28.417969 55.37891,42.625 94.04688,42.625 31.05078,0 56.97656,-9.519531 77.78125,-28.5625 20.80078,-19.03906 33.98828,-48.33594 39.5625,-87.89062 z m 0,0"
             id="path3458" />
        </g>
        <g
           id="use514"
           transform="translate(20445.307,1649.9917)" />
        <g
           id="use516"
           transform="translate(20695.355,1649.9917)">
          <path
             d="M 59.765625,0 V -644.23437 H 138.875 v 367.375 L 326.07812,-466.70312 H 428.46875 L 250.04687,-293.5625 446.48437,0 h -97.5625 l -154.25,-238.625 -55.79687,53.60938 V 0 Z m 0,0"
             id="path3464" />
        </g>
        <g
           id="use518"
           transform="translate(21145.354,1649.9917)">
          <path
             d="m 378.8125,-150.29687 81.73437,10.10937 c -12.88671,47.75 -36.76171,84.8125 -71.625,111.1875 -34.86718,26.367187 -79.39843,39.546875 -133.59375,39.546875 -68.26171,0 -122.39062,-21.019531 -162.39062,-63.0625 C 52.945313,-94.554688 32.953125,-153.51562 32.953125,-229.39062 c 0,-78.51954 20.210938,-139.45704 60.640625,-182.8125 40.4375,-43.36329 92.87891,-65.04688 157.32812,-65.04688 62.40625,0 113.38282,21.24219 152.9375,63.71875 39.55079,42.48047 59.32813,102.24609 59.32813,179.29688 0,4.6875 -0.14844,11.71875 -0.4375,21.09375 H 114.70313 c 2.92578,51.27343 17.42578,90.53124 43.49999,117.781245 26.07032,27.242187 58.59375,40.859375 97.5625,40.859375 29,0 53.75391,-7.613281 74.26563,-22.84375 20.50781,-15.238281 36.76953,-39.55469 48.78125,-72.95312 z m -259.71875,-127.875 H 379.6875 c -3.51172,-39.25782 -13.46875,-68.70313 -29.875,-88.32813 -25.19922,-30.46875 -57.86719,-45.70312 -98,-45.70312 -36.33594,0 -66.88281,12.15625 -91.64063,36.46875 -24.75,24.3125 -38.44531,56.83593 -41.07812,97.5625 z m 0,0"
             id="path3468" />
        </g>
        <g
           id="use520"
           transform="translate(21645.887,1649.9917)">
          <path
             d="m 55.8125,179.73437 -8.796875,-74.26562 c 17.289063,4.6875 32.378906,7.03125 45.265625,7.03125 17.58203,0 31.64453,-2.93359 42.1875,-8.79687 10.55078,-5.855474 19.19531,-14.054692 25.9375,-24.593755 C 165.38281,71.191406 173.44141,51.5625 184.57812,20.21875 186.03516,15.820313 188.37891,9.375 191.60937,0.875 L 14.5,-466.70312 h 85.25 l 97.125,270.26562 c 12.59375,34.28125 23.875,70.32031 33.84375,108.109375 9.08203,-36.332035 19.92187,-71.781245 32.51562,-106.343745 l 99.75,-272.03125 h 79.10938 L 264.54687,7.90625 c -19.04296,51.269531 -33.83593,86.570313 -44.375,105.90625 -14.0625,26.08203 -30.17968,45.20312 -48.34375,57.35937 -18.16796,12.15625 -39.85156,18.23438 -65.04687,18.23438 -15.230469,0 -32.21875,-3.22656 -50.96875,-9.67188 z m 0,0"
             id="path3472" />
        </g>
      </g>
      <g
         fill="#232f3d"
         fill-opacity="1"
         id="g526"
         transform="matrix(0.01338567,0,0,0.01338567,10.598446,10.598446)">
        <g
           id="use524"
           transform="translate(22029.088,1649.9917)">
          <path
             d="M 79.984375,0 V -90.09375 H 170.0625 V 0 c 0,33.101563 -5.85938,59.835938 -17.57813,80.203125 C 140.76562,100.56641 122.16406,116.3125 96.6875,127.4375 L 74.703125,93.609375 C 91.398438,86.285156 103.70313,75.515625 111.60938,61.296875 119.52344,47.085938 123.92578,26.65625 124.8125,0 Z m 0,0"
             id="path3476" />
        </g>
      </g>
      <g
         fill="#232f3d"
         fill-opacity="1"
         id="g556"
         transform="matrix(0.01338567,0,0,0.01338567,10.598446,10.598446)">
        <g
           id="use528"
           transform="translate(17310.85,2774.9861)">
          <path
             d="m 363.875,-170.95312 77.78125,10.10937 c -8.5,53.61719 -30.25781,95.585937 -65.26563,125.90625 -35.01171,30.324219 -78.00781,45.484375 -128.98437,45.484375 -63.86719,0 -115.21094,-20.875 -154.03125,-62.625 -38.8125,-41.75 -58.21875,-101.585935 -58.21875,-179.515625 0,-50.38281 8.347656,-94.47266 25.046875,-132.26562 16.695313,-37.80079 42.109375,-66.14844 76.234375,-85.04688 34.13281,-18.89453 71.27344,-28.34375 111.42187,-28.34375 50.67579,0 92.12891,12.82031 124.35938,38.45313 32.22656,25.63671 52.88281,62.03906 61.96875,109.20312 l -76.90625,11.875 c -7.32422,-31.35156 -20.28906,-54.9375 -38.89063,-70.75 -18.60546,-15.82031 -41.09375,-23.73437 -67.46875,-23.73437 -39.84375,0 -72.21875,14.28125 -97.125,42.84375 -24.89843,28.5625 -37.34374,73.75 -37.34374,135.5625 0,62.69921 12.00781,108.25781 36.03124,136.67187 24.03125,28.417969 55.37891,42.625 94.04688,42.625 31.05078,0 56.97656,-9.519531 77.78125,-28.5625 20.80078,-19.03906 33.98828,-48.33594 39.5625,-87.89062 z m 0,0"
             id="path3480" />
        </g>
        <g
           id="use530"
           transform="translate(17760.848,2774.9861)">
          <path
             d="m 29.890625,-233.34375 c 0,-86.42578 24.019531,-150.44141 72.062505,-192.04687 40.13281,-34.57032 89.06249,-51.85938 146.78124,-51.85938 64.15625,0 116.59375,21.02344 157.3125,63.0625 40.72657,42.04297 61.09375,100.125 61.09375,174.25 0,60.05469 -9.01171,107.29297 -27.03125,141.71875 -18.01171,34.429687 -44.23046,61.164062 -78.65625,80.203125 -34.42968,19.039063 -72,28.5625 -112.71875,28.5625 -65.33593,0 -118.14062,-20.945313 -158.42187,-62.84375 C 50.03125,-94.191406 29.890625,-154.53906 29.890625,-233.34375 Z m 81.296875,0 c 0,59.76172 13.03516,104.51172 39.10937,134.25 26.07032,29.730469 58.88282,44.59375 98.4375,44.59375 39.25782,0 71.92579,-14.9375 98,-44.8125 26.07032,-29.88281 39.10938,-75.44141 39.10938,-136.67187 0,-57.71875 -13.11719,-101.44141 -39.34375,-131.17188 -26.21875,-29.73828 -58.80859,-44.60937 -97.76563,-44.60937 -39.55468,0 -72.36718,14.79687 -98.4375,44.39062 -26.07421,29.58594 -39.10937,74.26172 -39.10937,134.03125 z m 0,0"
             id="path3484" />
        </g>
        <g
           id="use532"
           transform="translate(18261.383,2774.9861)">
          <path
             d="m 59.328125,178.85937 v -645.56249 h 72.062495 v 60.64062 c 17,-23.72656 36.19141,-41.52344 57.57813,-53.39062 21.38281,-11.86329 47.3125,-17.79688 77.78125,-17.79688 39.84375,0 75,10.25781 105.46875,30.76563 30.46875,20.51171 53.46094,49.44531 68.98437,86.79687 15.53125,37.35547 23.29688,78.29688 23.29688,122.82813 0,47.75 -8.57031,90.74609 -25.70313,128.98437 -17.13671,38.230469 -42.03906,67.527344 -74.70312,87.890625 -32.66797,20.351563 -67.02344,30.53125 -103.0625,30.53125 -26.36719,0 -50.02344,-5.570312 -70.96875,-16.703125 -20.94922,-11.132813 -38.16406,-25.195313 -51.64063,-42.1875 v 227.20312 z m 71.624995,-409.57812 c 0,60.0625 12.15625,104.44922 36.46875,133.15625 24.32032,28.710937 53.76954,43.0625 88.34375,43.0625 35.15625,0 65.25391,-14.863281 90.29688,-44.59375 25.05078,-29.73828 37.57812,-75.8125 37.57812,-138.21875 0,-59.46875 -12.23437,-103.99219 -36.70312,-133.57812 -24.46094,-29.59375 -53.67969,-44.39063 -87.65625,-44.39063 -33.69922,0 -63.51172,15.75 -89.4375,47.25 -25.92969,31.49219 -38.89063,77.26172 -38.89063,137.3125 z m 0,0"
             id="path3488" />
        </g>
        <g
           id="use534"
           transform="translate(18761.918,2774.9861)">
          <path
             d="m 55.8125,179.73437 -8.796875,-74.26562 c 17.289063,4.6875 32.378906,7.03125 45.265625,7.03125 17.58203,0 31.64453,-2.93359 42.1875,-8.79687 10.55078,-5.855474 19.19531,-14.054692 25.9375,-24.593755 C 165.38281,71.191406 173.44141,51.5625 184.57812,20.21875 186.03516,15.820313 188.37891,9.375 191.60937,0.875 L 14.5,-466.70312 h 85.25 l 97.125,270.26562 c 12.59375,34.28125 23.875,70.32031 33.84375,108.109375 9.08203,-36.332035 19.92187,-71.781245 32.51562,-106.343745 l 99.75,-272.03125 h 79.10938 L 264.54687,7.90625 c -19.04296,51.269531 -33.83593,86.570313 -44.375,105.90625 -14.0625,26.08203 -30.17968,45.20312 -48.34375,57.35937 -18.16796,12.15625 -39.85156,18.23438 -65.04687,18.23438 -15.230469,0 -32.21875,-3.22656 -50.96875,-9.67188 z m 0,0"
             id="path3492" />
        </g>
        <g
           id="use536"
           transform="translate(19211.914,2774.9861)" />
        <g
           id="use538"
           transform="translate(19461.963,2774.9861)">
          <path
             d="m 232.03125,-70.75 11.42187,69.875 c -22.26171,4.6875 -42.18359,7.03125 -59.76562,7.03125 -28.71094,0 -50.97656,-4.542969 -66.79687,-13.625 -15.8125,-9.082031 -26.945317,-21.019531 -33.39063,-35.8125 -6.449219,-14.800781 -9.671875,-45.929688 -9.671875,-93.39062 v -268.5 h -58 v -61.53125 h 58 v -115.57813 l 78.656245,-47.45312 v 163.03125 h 79.54688 v 61.53125 h -79.54688 v 272.89062 c 0,22.5625 1.39063,37.070312 4.17188,43.515625 2.78906,6.4375 7.33203,11.5625 13.625,15.375 6.30078,3.8125 15.3125,5.71875 27.03125,5.71875 8.78906,0 20.36328,-1.023438 34.71875,-3.078125 z m 0,0"
             id="path3498" />
        </g>
        <g
           id="use540"
           transform="translate(19712.01,2774.9861)">
          <path
             d="m 29.890625,-233.34375 c 0,-86.42578 24.019531,-150.44141 72.062505,-192.04687 40.13281,-34.57032 89.06249,-51.85938 146.78124,-51.85938 64.15625,0 116.59375,21.02344 157.3125,63.0625 40.72657,42.04297 61.09375,100.125 61.09375,174.25 0,60.05469 -9.01171,107.29297 -27.03125,141.71875 -18.01171,34.429687 -44.23046,61.164062 -78.65625,80.203125 -34.42968,19.039063 -72,28.5625 -112.71875,28.5625 -65.33593,0 -118.14062,-20.945313 -158.42187,-62.84375 C 50.03125,-94.191406 29.890625,-154.53906 29.890625,-233.34375 Z m 81.296875,0 c 0,59.76172 13.03516,104.51172 39.10937,134.25 26.07032,29.730469 58.88282,44.59375 98.4375,44.59375 39.25782,0 71.92579,-14.9375 98,-44.8125 26.07032,-29.88281 39.10938,-75.44141 39.10938,-136.67187 0,-57.71875 -13.11719,-101.44141 -39.34375,-131.17188 -26.21875,-29.73828 -58.80859,-44.60937 -97.76563,-44.60937 -39.55468,0 -72.36718,14.79687 -98.4375,44.39062 -26.07421,29.58594 -39.10937,74.26172 -39.10937,134.03125 z m 0,0"
             id="path3502" />
        </g>
        <g
           id="use542"
           transform="translate(20212.545,2774.9861)" />
        <g
           id="use544"
           transform="translate(20462.592,2774.9861)">
          <path
             d="m 27.6875,-139.3125 78.21875,-12.29687 c 4.39453,31.34374 16.625,55.367182 36.6875,72.062495 20.07031,16.699219 48.12891,25.046875 84.17187,25.046875 36.32032,0 63.26954,-7.394531 80.84375,-22.1875 17.58204,-14.789063 26.375,-32.14844 26.375,-52.07812 0,-17.86329 -7.76562,-31.92579 -23.29687,-42.1875 -10.83594,-7.03125 -37.78906,-15.96094 -80.85938,-26.79688 -58,-14.65625 -98.21093,-27.32812 -120.62499,-38.01562 -22.406255,-10.69532 -39.398442,-25.49219 -50.968755,-44.39063 -11.574219,-18.89453 -17.359375,-39.76953 -17.359375,-62.625 0,-20.78906 4.757813,-40.05078 14.28125,-57.78125 9.519531,-17.72656 22.484375,-32.45312 38.890625,-44.17187 12.300785,-9.07032 29.070315,-16.75782 50.312495,-23.0625 21.23829,-6.30079 44.01954,-9.45313 68.34375,-9.45313 36.61329,0 68.76563,5.27734 96.45313,15.82813 27.6875,10.54296 48.11719,24.82421 61.29687,42.84375 13.1875,18.02343 22.26954,42.11718 27.25,72.28125 L 320.35937,-335.75 c -3.51171,-24.01953 -13.69531,-42.76562 -30.54687,-56.23437 -16.84375,-13.47657 -40.64844,-20.21875 -71.40625,-20.21875 -36.32422,0 -62.25,6.00781 -77.78125,18.01562 -15.53125,12.01172 -23.29687,26.07422 -23.29687,42.1875 0,10.25 3.22265,19.48047 9.67187,27.6875 6.44531,8.49219 16.55469,15.52344 30.32812,21.09375 7.90625,2.92969 31.19532,9.66406 69.875,20.20313 55.95704,14.94921 94.99219,27.18359 117.10938,36.70312 22.11328,9.52344 39.46875,23.36719 52.0625,41.53125 12.60156,18.15625 18.90625,40.71484 18.90625,67.67188 0,26.36718 -7.69531,51.195307 -23.07813,74.48437 -15.375,23.292969 -37.57031,41.3125 -66.57812,54.0625 -29,12.738281 -61.80859,19.109375 -98.42188,19.109375 C 166.55469,10.546875 120.33594,-2.050781 88.546875,-27.25 56.765625,-52.445313 36.476563,-89.800781 27.6875,-139.3125 Z m 0,0"
             id="path3508" />
        </g>
        <g
           id="use546"
           transform="translate(20912.59,2774.9861)">
          <path
             d="m 378.8125,-150.29687 81.73437,10.10937 c -12.88671,47.75 -36.76171,84.8125 -71.625,111.1875 -34.86718,26.367187 -79.39843,39.546875 -133.59375,39.546875 -68.26171,0 -122.39062,-21.019531 -162.39062,-63.0625 C 52.945313,-94.554688 32.953125,-153.51562 32.953125,-229.39062 c 0,-78.51954 20.210938,-139.45704 60.640625,-182.8125 40.4375,-43.36329 92.87891,-65.04688 157.32812,-65.04688 62.40625,0 113.38282,21.24219 152.9375,63.71875 39.55079,42.48047 59.32813,102.24609 59.32813,179.29688 0,4.6875 -0.14844,11.71875 -0.4375,21.09375 H 114.70313 c 2.92578,51.27343 17.42578,90.53124 43.49999,117.781245 26.07032,27.242187 58.59375,40.859375 97.5625,40.859375 29,0 53.75391,-7.613281 74.26563,-22.84375 20.50781,-15.238281 36.76953,-39.55469 48.78125,-72.95312 z m -259.71875,-127.875 H 379.6875 c -3.51172,-39.25782 -13.46875,-68.70313 -29.875,-88.32813 -25.19922,-30.46875 -57.86719,-45.70312 -98,-45.70312 -36.33594,0 -66.88281,12.15625 -91.64063,36.46875 -24.75,24.3125 -38.44531,56.83593 -41.07812,97.5625 z m 0,0"
             id="path3512" />
        </g>
        <g
           id="use548"
           transform="translate(21413.125,2774.9861)">
          <path
             d="m 58.453125,0 v -466.70312 h 71.187495 v 70.75 c 18.16407,-33.10157 34.9375,-54.92579 50.3125,-65.46875 15.38282,-10.55079 32.30469,-15.82813 50.76563,-15.82813 26.65625,0 53.75391,8.49609 81.29687,25.48438 l -27.25,73.39062 c -19.33593,-11.42578 -38.66796,-17.14062 -58,-17.14062 -17.29296,0 -32.82421,5.20312 -46.59375,15.60937 -13.77343,10.39844 -23.58593,24.82422 -29.4375,43.28125 -8.79296,28.125 -13.1875,58.88672 -13.1875,92.28125 V 0 Z m 0,0"
             id="path3516" />
        </g>
        <g
           id="use550"
           transform="translate(21712.83,2774.9861)">
          <path
             d="M 188.96875,0 11.421875,-466.70312 h 83.5 l 100.203125,279.5 c 10.83203,30.17968 20.78906,61.52343 29.875,94.031245 7.03125,-24.601565 16.84375,-54.191405 29.4375,-88.765625 l 103.71875,-284.76562 h 81.29687 L 262.79687,0 Z m 0,0"
             id="path3520" />
        </g>
        <g
           id="use552"
           transform="translate(22162.828,2774.9861)">
          <path
             d="m 378.8125,-150.29687 81.73437,10.10937 c -12.88671,47.75 -36.76171,84.8125 -71.625,111.1875 -34.86718,26.367187 -79.39843,39.546875 -133.59375,39.546875 -68.26171,0 -122.39062,-21.019531 -162.39062,-63.0625 C 52.945313,-94.554688 32.953125,-153.51562 32.953125,-229.39062 c 0,-78.51954 20.210938,-139.45704 60.640625,-182.8125 40.4375,-43.36329 92.87891,-65.04688 157.32812,-65.04688 62.40625,0 113.38282,21.24219 152.9375,63.71875 39.55079,42.48047 59.32813,102.24609 59.32813,179.29688 0,4.6875 -0.14844,11.71875 -0.4375,21.09375 H 114.70313 c 2.92578,51.27343 17.42578,90.53124 43.49999,117.781245 26.07032,27.242187 58.59375,40.859375 97.5625,40.859375 29,0 53.75391,-7.613281 74.26563,-22.84375 20.50781,-15.238281 36.76953,-39.55469 48.78125,-72.95312 z m -259.71875,-127.875 H 379.6875 c -3.51172,-39.25782 -13.46875,-68.70313 -29.875,-88.32813 -25.19922,-30.46875 -57.86719,-45.70312 -98,-45.70312 -36.33594,0 -66.88281,12.15625 -91.64063,36.46875 -24.75,24.3125 -38.44531,56.83593 -41.07812,97.5625 z m 0,0"
             id="path3524" />
        </g>
        <g
           id="use554"
           transform="translate(22663.363,2774.9861)">
          <path
             d="m 58.453125,0 v -466.70312 h 71.187495 v 70.75 c 18.16407,-33.10157 34.9375,-54.92579 50.3125,-65.46875 15.38282,-10.55079 32.30469,-15.82813 50.76563,-15.82813 26.65625,0 53.75391,8.49609 81.29687,25.48438 l -27.25,73.39062 c -19.33593,-11.42578 -38.66796,-17.14062 -58,-17.14062 -17.29296,0 -32.82421,5.20312 -46.59375,15.60937 -13.77343,10.39844 -23.58593,24.82422 -29.4375,43.28125 -8.79296,28.125 -13.1875,58.88672 -13.1875,92.28125 V 0 Z m 0,0"
             id="path3528" />
        </g>
      </g>
      <g
         fill="#232f3d"
         fill-opacity="1"
         id="g580"
         transform="matrix(0.01338567,0,0,0.01338567,10.598446,10.598446)">
        <g
           id="use558"
           transform="translate(17819.441,7274.9634)">
          <path
             d="m 69.4375,0 v -644.23437 h 243.01562 c 42.76954,0 75.4375,2.04687 98,6.14062 31.63282,5.28125 58.14454,15.32031 79.53125,30.10938 21.39454,14.79296 38.60938,35.52343 51.64063,62.1875 13.03906,26.65625 19.5625,55.95312 19.5625,87.89062 0,54.78125 -17.43359,101.14063 -52.29688,139.07813 -34.86718,37.9375 -97.85546,56.90625 -188.96875,56.90625 H 154.6875 V 0 Z m 85.25,-337.9375 h 166.54687 c 55.08204,0 94.19532,-10.25391 117.34375,-30.76562 23.14454,-20.50782 34.71875,-49.36719 34.71875,-86.57813 0,-26.94531 -6.8125,-50.01562 -20.4375,-69.20312 -13.625,-19.1875 -31.57031,-31.85938 -53.82812,-38.01563 -14.36719,-3.8125 -40.88281,-5.71875 -79.54688,-5.71875 H 154.6875 Z m 0,0"
             id="path3532" />
        </g>
        <g
           id="use560"
           transform="translate(18419.732,7274.9634)">
          <path
             d="m 58.453125,0 v -466.70312 h 71.187495 v 70.75 c 18.16407,-33.10157 34.9375,-54.92579 50.3125,-65.46875 15.38282,-10.55079 32.30469,-15.82813 50.76563,-15.82813 26.65625,0 53.75391,8.49609 81.29687,25.48438 l -27.25,73.39062 c -19.33593,-11.42578 -38.66796,-17.14062 -58,-17.14062 -17.29296,0 -32.82421,5.20312 -46.59375,15.60937 -13.77343,10.39844 -23.58593,24.82422 -29.4375,43.28125 -8.79296,28.125 -13.1875,58.88672 -13.1875,92.28125 V 0 Z m 0,0"
             id="path3536" />
        </g>
        <g
           id="use562"
           transform="translate(18719.437,7274.9634)">
          <path
             d="m 59.765625,-553.26562 v -90.96875 H 138.875 v 90.96875 z M 59.765625,0 V -466.70312 H 138.875 V 0 Z m 0,0"
             id="path3540" />
        </g>
        <g
           id="use564"
           transform="translate(18919.387,7274.9634)">
          <path
             d="M 188.96875,0 11.421875,-466.70312 h 83.5 l 100.203125,279.5 c 10.83203,30.17968 20.78906,61.52343 29.875,94.031245 7.03125,-24.601565 16.84375,-54.191405 29.4375,-88.765625 l 103.71875,-284.76562 h 81.29687 L 262.79687,0 Z m 0,0"
             id="path3544" />
        </g>
        <g
           id="use566"
           transform="translate(19369.385,7274.9634)">
          <path
             d="m 363.875,-57.5625 c -29.30469,24.898437 -57.50781,42.476562 -84.60938,52.734375 -27.09375,10.25 -56.16796,15.375 -87.21875,15.375 -51.27343,0 -90.67968,-12.519531 -118.218745,-37.5625 -27.542969,-25.050781 -41.3125,-57.0625 -41.3125,-96.031255 0,-22.85156 5.195313,-43.72656 15.59375,-62.62499 10.40625,-18.89454 24.03125,-34.05469 40.875,-45.48438 16.851565,-11.42578 35.828125,-20.06641 56.921875,-25.92187 15.51953,-4.10157 38.95703,-8.0625 70.3125,-11.875 63.86328,-7.61329 110.88281,-16.69141 141.0625,-27.23438 0.28906,-10.84375 0.4375,-17.72656 0.4375,-20.65625 0,-32.22656 -7.47656,-54.9375 -22.42188,-68.125 -20.21093,-17.86328 -50.23437,-26.79687 -90.07812,-26.79687 -37.21094,0 -64.67969,6.52343 -82.40625,19.5625 -17.71875,13.03125 -30.82813,36.10156 -39.32812,69.20312 l -77.343755,-10.54687 c 7.03125,-33.10157 18.601563,-59.83204 34.71875,-80.1875 16.113281,-20.36329 39.406255,-36.03907 69.874995,-47.03125 30.46875,-10.98829 65.76954,-16.48438 105.90625,-16.48438 39.84375,0 72.21094,4.6875 97.10938,14.0625 24.90625,9.375 43.21875,21.16797 54.9375,35.375 11.71875,14.21094 19.92187,32.15625 24.60937,53.84375 2.63282,13.46875 3.95313,37.78125 3.95313,72.9375 v 105.46875 c 0,73.54297 1.67969,120.054687 5.04687,139.53125 3.375,19.480469 10.04688,38.15625 20.01563,56.03125 h -82.625 c -8.19922,-16.40625 -13.46875,-35.59375 -15.8125,-57.5625 z m -6.59375,-176.67187 c -28.71875,11.71875 -71.78906,21.68359 -129.20313,29.89062 -32.52343,4.6875 -55.52343,9.96484 -69,15.82813 -13.46875,5.85546 -23.87109,14.42187 -31.20312,25.70312 -7.32422,11.27344 -10.98437,23.79297 -10.98437,37.5625 0,21.09375 7.98437,38.671875 23.95312,52.734375 15.96875,14.0625 39.33203,21.09375 70.09375,21.09375 30.46875,0 57.56641,-6.660156 81.29687,-19.984375 23.72657,-13.332031 41.16016,-31.57031 52.29688,-54.71875 8.5,-17.875 12.75,-44.23828 12.75,-79.09375 z m 0,0"
             id="path3548" />
        </g>
        <g
           id="use568"
           transform="translate(19869.92,7274.9634)">
          <path
             d="m 232.03125,-70.75 11.42187,69.875 c -22.26171,4.6875 -42.18359,7.03125 -59.76562,7.03125 -28.71094,0 -50.97656,-4.542969 -66.79687,-13.625 -15.8125,-9.082031 -26.945317,-21.019531 -33.39063,-35.8125 -6.449219,-14.800781 -9.671875,-45.929688 -9.671875,-93.39062 v -268.5 h -58 v -61.53125 h 58 v -115.57813 l 78.656245,-47.45312 v 163.03125 h 79.54688 v 61.53125 h -79.54688 v 272.89062 c 0,22.5625 1.39063,37.070312 4.17188,43.515625 2.78906,6.4375 7.33203,11.5625 13.625,15.375 6.30078,3.8125 15.3125,5.71875 27.03125,5.71875 8.78906,0 20.36328,-1.023438 34.71875,-3.078125 z m 0,0"
             id="path3552" />
        </g>
        <g
           id="use570"
           transform="translate(20119.967,7274.9634)">
          <path
             d="m 378.8125,-150.29687 81.73437,10.10937 c -12.88671,47.75 -36.76171,84.8125 -71.625,111.1875 -34.86718,26.367187 -79.39843,39.546875 -133.59375,39.546875 -68.26171,0 -122.39062,-21.019531 -162.39062,-63.0625 C 52.945313,-94.554688 32.953125,-153.51562 32.953125,-229.39062 c 0,-78.51954 20.210938,-139.45704 60.640625,-182.8125 40.4375,-43.36329 92.87891,-65.04688 157.32812,-65.04688 62.40625,0 113.38282,21.24219 152.9375,63.71875 39.55079,42.48047 59.32813,102.24609 59.32813,179.29688 0,4.6875 -0.14844,11.71875 -0.4375,21.09375 H 114.70313 c 2.92578,51.27343 17.42578,90.53124 43.49999,117.781245 26.07032,27.242187 58.59375,40.859375 97.5625,40.859375 29,0 53.75391,-7.613281 74.26563,-22.84375 20.50781,-15.238281 36.76953,-39.55469 48.78125,-72.95312 z m -259.71875,-127.875 H 379.6875 c -3.51172,-39.25782 -13.46875,-68.70313 -29.875,-88.32813 -25.19922,-30.46875 -57.86719,-45.70312 -98,-45.70312 -36.33594,0 -66.88281,12.15625 -91.64063,36.46875 -24.75,24.3125 -38.44531,56.83593 -41.07812,97.5625 z m 0,0"
             id="path3556" />
        </g>
        <g
           id="use572"
           transform="translate(20620.502,7274.9634)" />
        <g
           id="use574"
           transform="translate(20870.549,7274.9634)">
          <path
             d="M 59.765625,0 V -644.23437 H 138.875 v 367.375 L 326.07812,-466.70312 H 428.46875 L 250.04687,-293.5625 446.48437,0 h -97.5625 l -154.25,-238.625 -55.79687,53.60938 V 0 Z m 0,0"
             id="path3562" />
        </g>
        <g
           id="use576"
           transform="translate(21320.547,7274.9634)">
          <path
             d="m 378.8125,-150.29687 81.73437,10.10937 c -12.88671,47.75 -36.76171,84.8125 -71.625,111.1875 -34.86718,26.367187 -79.39843,39.546875 -133.59375,39.546875 -68.26171,0 -122.39062,-21.019531 -162.39062,-63.0625 C 52.945313,-94.554688 32.953125,-153.51562 32.953125,-229.39062 c 0,-78.51954 20.210938,-139.45704 60.640625,-182.8125 40.4375,-43.36329 92.87891,-65.04688 157.32812,-65.04688 62.40625,0 113.38282,21.24219 152.9375,63.71875 39.55079,42.48047 59.32813,102.24609 59.32813,179.29688 0,4.6875 -0.14844,11.71875 -0.4375,21.09375 H 114.70313 c 2.92578,51.27343 17.42578,90.53124 43.49999,117.781245 26.07032,27.242187 58.59375,40.859375 97.5625,40.859375 29,0 53.75391,-7.613281 74.26563,-22.84375 20.50781,-15.238281 36.76953,-39.55469 48.78125,-72.95312 z m -259.71875,-127.875 H 379.6875 c -3.51172,-39.25782 -13.46875,-68.70313 -29.875,-88.32813 -25.19922,-30.46875 -57.86719,-45.70312 -98,-45.70312 -36.33594,0 -66.88281,12.15625 -91.64063,36.46875 -24.75,24.3125 -38.44531,56.83593 -41.07812,97.5625 z m 0,0"
             id="path3566" />
        </g>
        <g
           id="use578"
           transform="translate(21821.082,7274.9634)">
          <path
             d="m 55.8125,179.73437 -8.796875,-74.26562 c 17.289063,4.6875 32.378906,7.03125 45.265625,7.03125 17.58203,0 31.64453,-2.93359 42.1875,-8.79687 10.55078,-5.855474 19.19531,-14.054692 25.9375,-24.593755 C 165.38281,71.191406 173.44141,51.5625 184.57812,20.21875 186.03516,15.820313 188.37891,9.375 191.60937,0.875 L 14.5,-466.70312 h 85.25 l 97.125,270.26562 c 12.59375,34.28125 23.875,70.32031 33.84375,108.109375 9.08203,-36.332035 19.92187,-71.781245 32.51562,-106.343745 l 99.75,-272.03125 h 79.10938 L 264.54687,7.90625 c -19.04296,51.269531 -33.83593,86.570313 -44.375,105.90625 -14.0625,26.08203 -30.17968,45.20312 -48.34375,57.35937 -18.16796,12.15625 -39.85156,18.23438 -65.04687,18.23438 -15.230469,0 -32.21875,-3.22656 -50.96875,-9.67188 z m 0,0"
             id="path3570" />
        </g>
      </g>
      <g
         fill="#232f3d"
         fill-opacity="1"
         id="g584"
         transform="matrix(0.01338567,0,0,0.01338567,10.598446,10.598446)">
        <g
           id="use582"
           transform="translate(22204.283,7274.9634)">
          <path
             d="M 79.984375,0 V -90.09375 H 170.0625 V 0 c 0,33.101563 -5.85938,59.835938 -17.57813,80.203125 C 140.76562,100.56641 122.16406,116.3125 96.6875,127.4375 L 74.703125,93.609375 C 91.398438,86.285156 103.70313,75.515625 111.60938,61.296875 119.52344,47.085938 123.92578,26.65625 124.8125,0 Z m 0,0"
             id="path3574" />
        </g>
      </g>
      <g
         fill="#232f3d"
         fill-opacity="1"
         id="g618"
         transform="matrix(0.01338567,0,0,0.01338567,10.598446,10.598446)">
        <g
           id="use586"
           transform="translate(16960.461,8399.958)">
          <path
             d="M 59.765625,0 V -644.23437 H 138.875 v 367.375 L 326.07812,-466.70312 H 428.46875 L 250.04687,-293.5625 446.48437,0 h -97.5625 l -154.25,-238.625 -55.79687,53.60938 V 0 Z m 0,0"
             id="path3578" />
        </g>
        <g
           id="use588"
           transform="translate(17410.459,8399.958)">
          <path
             d="m 378.8125,-150.29687 81.73437,10.10937 c -12.88671,47.75 -36.76171,84.8125 -71.625,111.1875 -34.86718,26.367187 -79.39843,39.546875 -133.59375,39.546875 -68.26171,0 -122.39062,-21.019531 -162.39062,-63.0625 C 52.945313,-94.554688 32.953125,-153.51562 32.953125,-229.39062 c 0,-78.51954 20.210938,-139.45704 60.640625,-182.8125 40.4375,-43.36329 92.87891,-65.04688 157.32812,-65.04688 62.40625,0 113.38282,21.24219 152.9375,63.71875 39.55079,42.48047 59.32813,102.24609 59.32813,179.29688 0,4.6875 -0.14844,11.71875 -0.4375,21.09375 H 114.70313 c 2.92578,51.27343 17.42578,90.53124 43.49999,117.781245 26.07032,27.242187 58.59375,40.859375 97.5625,40.859375 29,0 53.75391,-7.613281 74.26563,-22.84375 20.50781,-15.238281 36.76953,-39.55469 48.78125,-72.95312 z m -259.71875,-127.875 H 379.6875 c -3.51172,-39.25782 -13.46875,-68.70313 -29.875,-88.32813 -25.19922,-30.46875 -57.86719,-45.70312 -98,-45.70312 -36.33594,0 -66.88281,12.15625 -91.64063,36.46875 -24.75,24.3125 -38.44531,56.83593 -41.07812,97.5625 z m 0,0"
             id="path3582" />
        </g>
        <g
           id="use590"
           transform="translate(17910.994,8399.958)">
          <path
             d="m 378.8125,-150.29687 81.73437,10.10937 c -12.88671,47.75 -36.76171,84.8125 -71.625,111.1875 -34.86718,26.367187 -79.39843,39.546875 -133.59375,39.546875 -68.26171,0 -122.39062,-21.019531 -162.39062,-63.0625 C 52.945313,-94.554688 32.953125,-153.51562 32.953125,-229.39062 c 0,-78.51954 20.210938,-139.45704 60.640625,-182.8125 40.4375,-43.36329 92.87891,-65.04688 157.32812,-65.04688 62.40625,0 113.38282,21.24219 152.9375,63.71875 39.55079,42.48047 59.32813,102.24609 59.32813,179.29688 0,4.6875 -0.14844,11.71875 -0.4375,21.09375 H 114.70313 c 2.92578,51.27343 17.42578,90.53124 43.49999,117.781245 26.07032,27.242187 58.59375,40.859375 97.5625,40.859375 29,0 53.75391,-7.613281 74.26563,-22.84375 20.50781,-15.238281 36.76953,-39.55469 48.78125,-72.95312 z m -259.71875,-127.875 H 379.6875 c -3.51172,-39.25782 -13.46875,-68.70313 -29.875,-88.32813 -25.19922,-30.46875 -57.86719,-45.70312 -98,-45.70312 -36.33594,0 -66.88281,12.15625 -91.64063,36.46875 -24.75,24.3125 -38.44531,56.83593 -41.07812,97.5625 z m 0,0"
             id="path3586" />
        </g>
        <g
           id="use592"
           transform="translate(18411.529,8399.958)">
          <path
             d="m 59.328125,178.85937 v -645.56249 h 72.062495 v 60.64062 c 17,-23.72656 36.19141,-41.52344 57.57813,-53.39062 21.38281,-11.86329 47.3125,-17.79688 77.78125,-17.79688 39.84375,0 75,10.25781 105.46875,30.76563 30.46875,20.51171 53.46094,49.44531 68.98437,86.79687 15.53125,37.35547 23.29688,78.29688 23.29688,122.82813 0,47.75 -8.57031,90.74609 -25.70313,128.98437 -17.13671,38.230469 -42.03906,67.527344 -74.70312,87.890625 -32.66797,20.351563 -67.02344,30.53125 -103.0625,30.53125 -26.36719,0 -50.02344,-5.570312 -70.96875,-16.703125 -20.94922,-11.132813 -38.16406,-25.195313 -51.64063,-42.1875 v 227.20312 z m 71.624995,-409.57812 c 0,60.0625 12.15625,104.44922 36.46875,133.15625 24.32032,28.710937 53.76954,43.0625 88.34375,43.0625 35.15625,0 65.25391,-14.863281 90.29688,-44.59375 25.05078,-29.73828 37.57812,-75.8125 37.57812,-138.21875 0,-59.46875 -12.23437,-103.99219 -36.70312,-133.57812 -24.46094,-29.59375 -53.67969,-44.39063 -87.65625,-44.39063 -33.69922,0 -63.51172,15.75 -89.4375,47.25 -25.92969,31.49219 -38.89063,77.26172 -38.89063,137.3125 z m 0,0"
             id="path3590" />
        </g>
        <g
           id="use594"
           transform="translate(18912.062,8399.958)" />
        <g
           id="use596"
           transform="translate(19162.111,8399.958)">
          <path
             d="m 232.03125,-70.75 11.42187,69.875 c -22.26171,4.6875 -42.18359,7.03125 -59.76562,7.03125 -28.71094,0 -50.97656,-4.542969 -66.79687,-13.625 -15.8125,-9.082031 -26.945317,-21.019531 -33.39063,-35.8125 -6.449219,-14.800781 -9.671875,-45.929688 -9.671875,-93.39062 v -268.5 h -58 v -61.53125 h 58 v -115.57813 l 78.656245,-47.45312 v 163.03125 h 79.54688 v 61.53125 h -79.54688 v 272.89062 c 0,22.5625 1.39063,37.070312 4.17188,43.515625 2.78906,6.4375 7.33203,11.5625 13.625,15.375 6.30078,3.8125 15.3125,5.71875 27.03125,5.71875 8.78906,0 20.36328,-1.023438 34.71875,-3.078125 z m 0,0"
             id="path3596" />
        </g>
        <g
           id="use598"
           transform="translate(19412.158,8399.958)">
          <path
             d="m 29.890625,-233.34375 c 0,-86.42578 24.019531,-150.44141 72.062505,-192.04687 40.13281,-34.57032 89.06249,-51.85938 146.78124,-51.85938 64.15625,0 116.59375,21.02344 157.3125,63.0625 40.72657,42.04297 61.09375,100.125 61.09375,174.25 0,60.05469 -9.01171,107.29297 -27.03125,141.71875 -18.01171,34.429687 -44.23046,61.164062 -78.65625,80.203125 -34.42968,19.039063 -72,28.5625 -112.71875,28.5625 -65.33593,0 -118.14062,-20.945313 -158.42187,-62.84375 C 50.03125,-94.191406 29.890625,-154.53906 29.890625,-233.34375 Z m 81.296875,0 c 0,59.76172 13.03516,104.51172 39.10937,134.25 26.07032,29.730469 58.88282,44.59375 98.4375,44.59375 39.25782,0 71.92579,-14.9375 98,-44.8125 26.07032,-29.88281 39.10938,-75.44141 39.10938,-136.67187 0,-57.71875 -13.11719,-101.44141 -39.34375,-131.17188 -26.21875,-29.73828 -58.80859,-44.60937 -97.76563,-44.60937 -39.55468,0 -72.36718,14.79687 -98.4375,44.39062 -26.07421,29.58594 -39.10937,74.26172 -39.10937,134.03125 z m 0,0"
             id="path3600" />
        </g>
        <g
           id="use600"
           transform="translate(19912.693,8399.958)" />
        <g
           id="use602"
           transform="translate(20162.74,8399.958)">
          <path
             d="m 55.8125,179.73437 -8.796875,-74.26562 c 17.289063,4.6875 32.378906,7.03125 45.265625,7.03125 17.58203,0 31.64453,-2.93359 42.1875,-8.79687 10.55078,-5.855474 19.19531,-14.054692 25.9375,-24.593755 C 165.38281,71.191406 173.44141,51.5625 184.57812,20.21875 186.03516,15.820313 188.37891,9.375 191.60937,0.875 L 14.5,-466.70312 h 85.25 l 97.125,270.26562 c 12.59375,34.28125 23.875,70.32031 33.84375,108.109375 9.08203,-36.332035 19.92187,-71.781245 32.51562,-106.343745 l 99.75,-272.03125 h 79.10938 L 264.54687,7.90625 c -19.04296,51.269531 -33.83593,86.570313 -44.375,105.90625 -14.0625,26.08203 -30.17968,45.20312 -48.34375,57.35937 -18.16796,12.15625 -39.85156,18.23438 -65.04687,18.23438 -15.230469,0 -32.21875,-3.22656 -50.96875,-9.67188 z m 0,0"
             id="path3606" />
        </g>
        <g
           id="use604"
           transform="translate(20612.738,8399.958)">
          <path
             d="m 29.890625,-233.34375 c 0,-86.42578 24.019531,-150.44141 72.062505,-192.04687 40.13281,-34.57032 89.06249,-51.85938 146.78124,-51.85938 64.15625,0 116.59375,21.02344 157.3125,63.0625 40.72657,42.04297 61.09375,100.125 61.09375,174.25 0,60.05469 -9.01171,107.29297 -27.03125,141.71875 -18.01171,34.429687 -44.23046,61.164062 -78.65625,80.203125 -34.42968,19.039063 -72,28.5625 -112.71875,28.5625 -65.33593,0 -118.14062,-20.945313 -158.42187,-62.84375 C 50.03125,-94.191406 29.890625,-154.53906 29.890625,-233.34375 Z m 81.296875,0 c 0,59.76172 13.03516,104.51172 39.10937,134.25 26.07032,29.730469 58.88282,44.59375 98.4375,44.59375 39.25782,0 71.92579,-14.9375 98,-44.8125 26.07032,-29.88281 39.10938,-75.44141 39.10938,-136.67187 0,-57.71875 -13.11719,-101.44141 -39.34375,-131.17188 -26.21875,-29.73828 -58.80859,-44.60937 -97.76563,-44.60937 -39.55468,0 -72.36718,14.79687 -98.4375,44.39062 -26.07421,29.58594 -39.10937,74.26172 -39.10937,134.03125 z m 0,0"
             id="path3610" />
        </g>
        <g
           id="use606"
           transform="translate(21113.273,8399.958)">
          <path
             d="m 365.1875,0 v -68.5625 c -36.33594,52.742187 -85.69922,79.109375 -148.09375,79.109375 -27.54297,0 -53.25,-5.273437 -77.125,-15.8125 -23.875,-10.550781 -41.601562,-23.8125 -53.171875,-39.78125 C 75.222656,-61.015625 67.09375,-80.570313 62.40625,-103.71875 59.175781,-119.23828 57.5625,-143.84766 57.5625,-177.54687 v -289.15625 h 79.10937 v 258.84375 c 0,41.30468 1.60938,69.13671 4.82813,83.49999 4.97656,20.79297 15.52344,37.125005 31.64062,49.000005 16.11329,11.867187 36.03516,17.796875 59.76563,17.796875 23.72656,0 45.99219,-6.078125 66.79687,-18.234375 20.80079,-12.164063 35.52344,-28.722655 44.17188,-49.671875 8.64453,-20.94531 12.96875,-51.34375 12.96875,-91.1875 V -466.70312 H 435.9375 V 0 Z m 0,0"
             id="path3614" />
        </g>
        <g
           id="use608"
           transform="translate(21613.807,8399.958)">
          <path
             d="m 58.453125,0 v -466.70312 h 71.187495 v 70.75 c 18.16407,-33.10157 34.9375,-54.92579 50.3125,-65.46875 15.38282,-10.55079 32.30469,-15.82813 50.76563,-15.82813 26.65625,0 53.75391,8.49609 81.29687,25.48438 l -27.25,73.39062 c -19.33593,-11.42578 -38.66796,-17.14062 -58,-17.14062 -17.29296,0 -32.82421,5.20312 -46.59375,15.60937 -13.77343,10.39844 -23.58593,24.82422 -29.4375,43.28125 -8.79296,28.125 -13.1875,58.88672 -13.1875,92.28125 V 0 Z m 0,0"
             id="path3618" />
        </g>
        <g
           id="use610"
           transform="translate(21913.514,8399.958)">
          <path
             d="m 27.6875,-139.3125 78.21875,-12.29687 c 4.39453,31.34374 16.625,55.367182 36.6875,72.062495 20.07031,16.699219 48.12891,25.046875 84.17187,25.046875 36.32032,0 63.26954,-7.394531 80.84375,-22.1875 17.58204,-14.789063 26.375,-32.14844 26.375,-52.07812 0,-17.86329 -7.76562,-31.92579 -23.29687,-42.1875 -10.83594,-7.03125 -37.78906,-15.96094 -80.85938,-26.79688 -58,-14.65625 -98.21093,-27.32812 -120.62499,-38.01562 -22.406255,-10.69532 -39.398442,-25.49219 -50.968755,-44.39063 -11.574219,-18.89453 -17.359375,-39.76953 -17.359375,-62.625 0,-20.78906 4.757813,-40.05078 14.28125,-57.78125 9.519531,-17.72656 22.484375,-32.45312 38.890625,-44.17187 12.300785,-9.07032 29.070315,-16.75782 50.312495,-23.0625 21.23829,-6.30079 44.01954,-9.45313 68.34375,-9.45313 36.61329,0 68.76563,5.27734 96.45313,15.82813 27.6875,10.54296 48.11719,24.82421 61.29687,42.84375 13.1875,18.02343 22.26954,42.11718 27.25,72.28125 L 320.35937,-335.75 c -3.51171,-24.01953 -13.69531,-42.76562 -30.54687,-56.23437 -16.84375,-13.47657 -40.64844,-20.21875 -71.40625,-20.21875 -36.32422,0 -62.25,6.00781 -77.78125,18.01562 -15.53125,12.01172 -23.29687,26.07422 -23.29687,42.1875 0,10.25 3.22265,19.48047 9.67187,27.6875 6.44531,8.49219 16.55469,15.52344 30.32812,21.09375 7.90625,2.92969 31.19532,9.66406 69.875,20.20313 55.95704,14.94921 94.99219,27.18359 117.10938,36.70312 22.11328,9.52344 39.46875,23.36719 52.0625,41.53125 12.60156,18.15625 18.90625,40.71484 18.90625,67.67188 0,26.36718 -7.69531,51.195307 -23.07813,74.48437 -15.375,23.292969 -37.57031,41.3125 -66.57812,54.0625 -29,12.738281 -61.80859,19.109375 -98.42188,19.109375 C 166.55469,10.546875 120.33594,-2.050781 88.546875,-27.25 56.765625,-52.445313 36.476563,-89.800781 27.6875,-139.3125 Z m 0,0"
             id="path3622" />
        </g>
        <g
           id="use612"
           transform="translate(22363.512,8399.958)">
          <path
             d="m 378.8125,-150.29687 81.73437,10.10937 c -12.88671,47.75 -36.76171,84.8125 -71.625,111.1875 -34.86718,26.367187 -79.39843,39.546875 -133.59375,39.546875 -68.26171,0 -122.39062,-21.019531 -162.39062,-63.0625 C 52.945313,-94.554688 32.953125,-153.51562 32.953125,-229.39062 c 0,-78.51954 20.210938,-139.45704 60.640625,-182.8125 40.4375,-43.36329 92.87891,-65.04688 157.32812,-65.04688 62.40625,0 113.38282,21.24219 152.9375,63.71875 39.55079,42.48047 59.32813,102.24609 59.32813,179.29688 0,4.6875 -0.14844,11.71875 -0.4375,21.09375 H 114.70313 c 2.92578,51.27343 17.42578,90.53124 43.49999,117.781245 26.07032,27.242187 58.59375,40.859375 97.5625,40.859375 29,0 53.75391,-7.613281 74.26563,-22.84375 20.50781,-15.238281 36.76953,-39.55469 48.78125,-72.95312 z m -259.71875,-127.875 H 379.6875 c -3.51172,-39.25782 -13.46875,-68.70313 -29.875,-88.32813 -25.19922,-30.46875 -57.86719,-45.70312 -98,-45.70312 -36.33594,0 -66.88281,12.15625 -91.64063,36.46875 -24.75,24.3125 -38.44531,56.83593 -41.07812,97.5625 z m 0,0"
             id="path3626" />
        </g>
        <g
           id="use614"
           transform="translate(22864.045,8399.958)">
          <path
             d="m 57.5625,0 v -644.23437 h 79.10937 V 0 Z m 0,0"
             id="path3630" />
        </g>
        <g
           id="use616"
           transform="translate(23063.996,8399.958)">
          <path
             d="m 78.21875,0 v -405.17187 h -69.875 v -61.53125 h 69.875 v -49.65625 c 0,-31.34375 2.785156,-54.63282 8.359375,-69.875 7.613281,-20.50782 21.015625,-37.13282 40.203125,-49.875 19.1875,-12.73829 46.06641,-19.10938 80.64062,-19.10938 22.26954,0 46.87891,2.63672 73.82813,7.90625 l -11.85938,68.98438 c -16.40625,-2.92579 -31.9375,-4.39063 -46.59375,-4.39063 -24.02343,0 -41.01171,5.13281 -50.96875,15.39063 -9.96093,10.25 -14.9375,29.4375 -14.9375,57.5625 v 43.0625 h 90.96875 v 61.53125 H 156.89062 V 0 Z m 0,0"
             id="path3634" />
        </g>
      </g>
      <path
         style="color:#000000;fill:#000000;stroke-width:0.027592;stroke-miterlimit:10;-inkscape-stroke:none"
         d="m 212.56267,10.511719 c -1.27559,0 -2.54179,0.366302 -3.64531,0.879976 -1.10272,0.513307 -2.0368,1.143965 -2.65254,1.941725 -1.88913,2.306821 -2.59631,4.320314 -2.75967,6.481722 h -2.15658 c -0.38589,0 -0.81602,0.118421 -1.1608,0.428375 -0.34479,0.309953 -0.53756,0.801641 -0.53756,1.246701 v 19.669134 c 0,0.344121 0.0784,0.762152 0.38515,1.120595 0.30671,0.358445 0.80632,0.530605 1.20262,0.530605 h 22.56035 c 0.35462,0 0.74286,-0.115596 1.04408,-0.384292 0.30121,-0.268694 0.48075,-0.686084 0.48075,-1.077862 V 21.46629 c 0,-0.375406 -0.10948,-0.857796 -0.46911,-1.2093 -0.35964,-0.351505 -0.82425,-0.441848 -1.16856,-0.441848 h -2.14867 c -0.20387,-1.982528 -0.94584,-4.033207 -2.11363,-5.63311 -1.42094,-2.032416 -3.99473,-3.670313 -6.86052,-3.670313 z m 0,2.181268 c 1.98428,0 4.07871,1.312706 5.07712,2.744476 l 0.007,0.01035 0.007,0.01024 c 1.05452,1.439835 1.76022,3.679379 1.76022,5.447727 v 1.090634 h 3.72716 V 40.62934 H 201.83142 V 21.99641 h 3.81399 v -1.090634 c 0,-2.323237 0.33696,-3.794275 2.32429,-6.21227 l 0.0108,-0.01309 0.0103,-0.01347 c 0.25037,-0.324726 0.97737,-0.89291 1.84704,-1.297734 0.86968,-0.404825 1.88823,-0.676217 2.72481,-0.676217 z m -0.0348,1.019121 c -3.35316,0 -5.91184,3.351202 -5.91184,7.193668 v 1.090634 h 11.80254 l -0.0115,-1.102113 c -0.0417,-3.969936 -2.63664,-7.182189 -5.87916,-7.182189 z m 0,2.181268 c 1.5017,0 3.17603,1.513982 3.59756,3.921766 h -7.23113 c 0.4092,-2.305597 2.06628,-3.921766 3.63357,-3.921766 z m -0.0435,8.734179 c -2.156,0 -3.86475,1.771173 -3.86475,3.819589 0,1.140764 0.50587,2.176623 1.30889,2.906472 l -1.30522,4.559506 -0.001,0.0053 c -0.15018,0.545517 -0.0897,1.201816 0.282,1.679012 0.37168,0.477193 0.95048,0.678694 1.4641,0.678694 h 4.19392 c 0.51256,0 1.05096,-0.160363 1.44566,-0.578513 0.3947,-0.418148 0.53214,-1.088655 0.38553,-1.623717 l -1.27483,-4.739985 c 0.73603,-0.699387 1.23328,-1.66385 1.23328,-2.76517 0,-2.18839 -1.75865,-3.941221 -3.86712,-3.941221 z m 0,2.181268 c 0.95235,0 1.68586,0.680571 1.68586,1.759952 0,0.660231 -0.25326,1.045359 -0.87572,1.441676 l -0.67542,0.430045 1.5208,5.65445 h -3.29977 l 1.62669,-5.682311 -0.73637,-0.426165 c -0.62701,-0.362863 -0.92955,-0.849973 -0.92955,-1.539326 0,-0.663118 0.87435,-1.638321 1.68348,-1.638321 z"
         id="path692" />
      <g
         fill="#232f3d"
         fill-opacity="1"
         id="g700"
         transform="matrix(0.01338567,0,0,0.01338567,10.598446,10.598446)">
        <g
           id="use694"
           transform="translate(13570.244,4049.9795)">
          <path
             d="M 59.765625,0 V -644.23437 H 138.875 v 367.375 L 326.07812,-466.70312 H 428.46875 L 250.04687,-293.5625 446.48437,0 h -97.5625 l -154.25,-238.625 -55.79687,53.60938 V 0 Z m 0,0"
             id="path3770" />
        </g>
        <g
           id="use696"
           transform="translate(14020.242,4049.9795)">
          <path
             d="m 378.8125,-150.29687 81.73437,10.10937 c -12.88671,47.75 -36.76171,84.8125 -71.625,111.1875 -34.86718,26.367187 -79.39843,39.546875 -133.59375,39.546875 -68.26171,0 -122.39062,-21.019531 -162.39062,-63.0625 C 52.945313,-94.554688 32.953125,-153.51562 32.953125,-229.39062 c 0,-78.51954 20.210938,-139.45704 60.640625,-182.8125 40.4375,-43.36329 92.87891,-65.04688 157.32812,-65.04688 62.40625,0 113.38282,21.24219 152.9375,63.71875 39.55079,42.48047 59.32813,102.24609 59.32813,179.29688 0,4.6875 -0.14844,11.71875 -0.4375,21.09375 H 114.70313 c 2.92578,51.27343 17.42578,90.53124 43.49999,117.781245 26.07032,27.242187 58.59375,40.859375 97.5625,40.859375 29,0 53.75391,-7.613281 74.26563,-22.84375 20.50781,-15.238281 36.76953,-39.55469 48.78125,-72.95312 z m -259.71875,-127.875 H 379.6875 c -3.51172,-39.25782 -13.46875,-68.70313 -29.875,-88.32813 -25.19922,-30.46875 -57.86719,-45.70312 -98,-45.70312 -36.33594,0 -66.88281,12.15625 -91.64063,36.46875 -24.75,24.3125 -38.44531,56.83593 -41.07812,97.5625 z m 0,0"
             id="path3774" />
        </g>
        <g
           id="use698"
           transform="translate(14520.776,4049.9795)">
          <path
             d="m 55.8125,179.73437 -8.796875,-74.26562 c 17.289063,4.6875 32.378906,7.03125 45.265625,7.03125 17.58203,0 31.64453,-2.93359 42.1875,-8.79687 10.55078,-5.855474 19.19531,-14.054692 25.9375,-24.593755 C 165.38281,71.191406 173.44141,51.5625 184.57812,20.21875 186.03516,15.820313 188.37891,9.375 191.60937,0.875 L 14.5,-466.70312 h 85.25 l 97.125,270.26562 c 12.59375,34.28125 23.875,70.32031 33.84375,108.109375 9.08203,-36.332035 19.92187,-71.781245 32.51562,-106.343745 l 99.75,-272.03125 h 79.10938 L 264.54687,7.90625 c -19.04296,51.269531 -33.83593,86.570313 -44.375,105.90625 -14.0625,26.08203 -30.17968,45.20312 -48.34375,57.35937 -18.16796,12.15625 -39.85156,18.23438 -65.04687,18.23438 -15.230469,0 -32.21875,-3.22656 -50.96875,-9.67188 z m 0,0"
             id="path3778" />
        </g>
      </g>
      <g
         fill="#232f3d"
         fill-opacity="1"
         id="g710"
         transform="matrix(0.01338567,0,0,0.01338567,10.598446,10.598446)">
        <g
           id="use702"
           transform="translate(14903.978,4049.9795)">
          <path
             d="M 81.734375,0 V -90.09375 H 171.82812 V 0 Z m 0,0"
             id="path3782" />
        </g>
        <g
           id="use704"
           transform="translate(15154.025,4049.9795)">
          <path
             d="m 59.328125,178.85937 v -645.56249 h 72.062495 v 60.64062 c 17,-23.72656 36.19141,-41.52344 57.57813,-53.39062 21.38281,-11.86329 47.3125,-17.79688 77.78125,-17.79688 39.84375,0 75,10.25781 105.46875,30.76563 30.46875,20.51171 53.46094,49.44531 68.98437,86.79687 15.53125,37.35547 23.29688,78.29688 23.29688,122.82813 0,47.75 -8.57031,90.74609 -25.70313,128.98437 -17.13671,38.230469 -42.03906,67.527344 -74.70312,87.890625 -32.66797,20.351563 -67.02344,30.53125 -103.0625,30.53125 -26.36719,0 -50.02344,-5.570312 -70.96875,-16.703125 -20.94922,-11.132813 -38.16406,-25.195313 -51.64063,-42.1875 v 227.20312 z m 71.624995,-409.57812 c 0,60.0625 12.15625,104.44922 36.46875,133.15625 24.32032,28.710937 53.76954,43.0625 88.34375,43.0625 35.15625,0 65.25391,-14.863281 90.29688,-44.59375 25.05078,-29.73828 37.57812,-75.8125 37.57812,-138.21875 0,-59.46875 -12.23437,-103.99219 -36.70312,-133.57812 -24.46094,-29.59375 -53.67969,-44.39063 -87.65625,-44.39063 -33.69922,0 -63.51172,15.75 -89.4375,47.25 -25.92969,31.49219 -38.89063,77.26172 -38.89063,137.3125 z m 0,0"
             id="path3786" />
        </g>
        <g
           id="use706"
           transform="translate(15654.56,4049.9795)">
          <path
             d="m 365.1875,0 v -68.5625 c -36.33594,52.742187 -85.69922,79.109375 -148.09375,79.109375 -27.54297,0 -53.25,-5.273437 -77.125,-15.8125 -23.875,-10.550781 -41.601562,-23.8125 -53.171875,-39.78125 C 75.222656,-61.015625 67.09375,-80.570313 62.40625,-103.71875 59.175781,-119.23828 57.5625,-143.84766 57.5625,-177.54687 v -289.15625 h 79.10937 v 258.84375 c 0,41.30468 1.60938,69.13671 4.82813,83.49999 4.97656,20.79297 15.52344,37.125005 31.64062,49.000005 16.11329,11.867187 36.03516,17.796875 59.76563,17.796875 23.72656,0 45.99219,-6.078125 66.79687,-18.234375 20.80079,-12.164063 35.52344,-28.722655 44.17188,-49.671875 8.64453,-20.94531 12.96875,-51.34375 12.96875,-91.1875 V -466.70312 H 435.9375 V 0 Z m 0,0"
             id="path3790" />
        </g>
        <g
           id="use708"
           transform="translate(16155.095,4049.9795)">
          <path
             d="M 132.28125,0 H 58.890625 v -644.23437 h 79.093745 v 229.82812 C 171.39062,-456.30078 214.01953,-477.25 265.875,-477.25 c 28.70703,0 55.87891,5.78906 81.51562,17.35938 25.63282,11.57421 46.72657,27.83593 63.28125,48.78125 16.55079,20.94921 29.51563,46.21875 38.89063,75.8125 9.375,29.58593 14.0625,61.22656 14.0625,94.92187 0,79.98047 -19.77734,141.796875 -59.32813,185.453125 -39.55468,43.648437 -87.01171,65.46875 -142.375,65.46875 -55.08593,0 -98.29687,-23 -129.64062,-69 z m -0.89063,-236.85937 c 0,55.94921 7.61719,96.375 22.85938,121.28124 24.90625,40.718755 58.59766,61.07813 101.07812,61.07813 34.5625,0 64.44141,-15.007813 89.64063,-45.03125 25.19531,-30.03125 37.79687,-74.78516 37.79687,-134.26562 0,-60.9375 -12.08984,-105.90625 -36.26562,-134.90625 -24.16797,-29 -53.38672,-43.5 -87.65625,-43.5 -34.57422,0 -64.46094,15.01562 -89.65625,45.04687 -25.19922,30.02344 -37.79688,73.45313 -37.79688,130.29688 z m 0,0"
             id="path3794" />
        </g>
      </g>
    </g>
  </g>
</svg>
